<svg xmlns="http://www.w3.org/2000/svg" xmlns:xlink="http://www.w3.org/1999/xlink" version="1.1" x="0px" y="0px" viewBox="0 0 100 125" style="enable-background:new 0 0 100 100;" xml:space="preserve"><path d="M58.7,66.4c1.1,1.1,2.5,1.6,3.9,1.6c1.4,0,2.8-0.5,3.9-1.6c2.1-2.1,2.1-5.6,0-7.7L57.7,50l8.7-8.7c2.1-2.1,2.1-5.6,0-7.7  c-2.1-2.1-5.6-2.1-7.7,0L50,42.3l-8.7-8.7c-2.1-2.1-5.6-2.1-7.7,0c-2.1,2.1-2.1,5.6,0,7.7l8.7,8.7l-8.7,8.7c-2.1,2.1-2.1,5.6,0,7.7  c1.1,1.1,2.5,1.6,3.9,1.6c1.4,0,2.8-0.5,3.9-1.6l8.7-8.7L58.7,66.4z" fill="crimson"/><path d="M92,50C92,26.8,73.2,8,50,8S8,26.8,8,50s18.9,42,42,42S92,73.2,92,50z M13.4,50c0-20.2,16.4-36.6,36.6-36.6  S86.6,29.8,86.6,50S70.2,86.6,50,86.6S13.4,70.2,13.4,50z" fill ="crimson" /></svg>